<?xml version="1.0" encoding="utf-8"?>
<!-- Generator: Adobe Illustrator 21.1.0, SVG Export Plug-In . SVG Version: 6.00 Build 0)  -->
<svg version="1.1" id="Layer_1" xmlns="http://www.w3.org/2000/svg" xmlns:xlink="http://www.w3.org/1999/xlink" x="0px" y="0px"
	 viewBox="0 0 57.9 56.5" style="enable-background:new 0 0 57.9 56.5;" xml:space="preserve">
<path d="M55,23.6L30.4,3c-0.9-0.8-2.3-0.8-3.2,0L2.6,23.6c-1.1,0.9-1.2,2.5-0.3,3.5c0.9,1.1,2.5,1.2,3.5,0.3L9,24.7v26.8
	c0,1.4,1.1,2.5,2.5,2.5h34.8c1.4,0,2.5-1.1,2.5-2.5V24.9l3,2.5c0.5,0.4,1,0.6,1.6,0.6c0.7,0,1.4-0.3,1.9-0.9
	C56.2,26.1,56.1,24.5,55,23.6z M33.5,49h-9.1V31.5h9.1V49z M43.8,49h-5.3V29c0-1.4-1.1-2.5-2.5-2.5H21.9c-1.4,0-2.5,1.1-2.5,2.5V49
	H14V20.5L28.8,8.2l15,12.6V49z"/>
</svg>
