<svg xmlns="http://www.w3.org/2000/svg" viewBox="0 0 32 40" x="0px" y="0px"><title>7-select product</title><g data-name="7-select product"><path d="M15,9V2a1,1,0,0,1,2,0V9a1,1,0,0,1-2,0Zm1,13a1,1,0,0,0-1,1v7a1,1,0,0,0,2,0V23A1,1,0,0,0,16,22Zm-6-6a1,1,0,0,0-1-1H2a1,1,0,0,0,0,2H9A1,1,0,0,0,10,16Zm11-3.95a1,1,0,0,0,.71-.29l3.05-3a1,1,0,1,0-1.42-1.42l-3.05,3.05a1,1,0,0,0,0,1.42A1,1,0,0,0,21,12.05ZM10.34,20.24l-3,3.05a1,1,0,0,0,0,1.42,1,1,0,0,0,1.42,0l3-3.05a1,1,0,1,0-1.42-1.42ZM8.71,7.29A1,1,0,1,0,7.29,8.71l3.05,3a1,1,0,0,0,1.42,0,1,1,0,0,0,0-1.42ZM30.8,25.6a1,1,0,0,1-.8.4,1,1,0,0,1-.6-.2l-6.75-5.06-.81,2.71a1,1,0,0,1-.82.7h-.14a1,1,0,0,1-.85-.47l-5.66-9.16a1,1,0,0,1,1.1-1.5l11.7,3a1,1,0,0,1,.11,1.9L24,19.24l6.61,5A1,1,0,0,1,30.8,25.6ZM21,19.19a.94.94,0,0,1,.52-1.07.88.88,0,0,1,.25-.18l1.87-.72-6.29-1.63,3.18,5.15Z"/></g><text x="0" y="47" fill="#000000" font-size="5px" font-weight="bold" font-family="'Helvetica Neue', Helvetica, Arial-Unicode, Arial, Sans-serif">Created by Fiki Ahmadi</text><text x="0" y="52" fill="#000000" font-size="5px" font-weight="bold" font-family="'Helvetica Neue', Helvetica, Arial-Unicode, Arial, Sans-serif">from the Noun Project</text></svg>