<svg xmlns="http://www.w3.org/2000/svg" viewBox="0 0 32 40" x="0px" y="0px"><title>18-reading online</title><g data-name="18-reading online"><path d="M30,1H2A1,1,0,0,0,1,2V26a1,1,0,0,0,1,1H12v2H9a1,1,0,0,0,0,2H23a1,1,0,0,0,0-2H20V27H30a1,1,0,0,0,1-1V2A1,1,0,0,0,30,1ZM3,3H29V20H3ZM18,29H14V27h4Zm11-4H3V22H29ZM15,7a1,1,0,0,1-1,1H6A1,1,0,0,1,6,6h8A1,1,0,0,1,15,7Zm0,3a1,1,0,0,1-1,1H6A1,1,0,0,1,6,9h8A1,1,0,0,1,15,10Zm0,3a1,1,0,0,1-1,1H6a1,1,0,0,1,0-2h8A1,1,0,0,1,15,13Zm0,3a1,1,0,0,1-1,1H6a1,1,0,0,1,0-2h8A1,1,0,0,1,15,16ZM27,7a1,1,0,0,1-1,1H18a1,1,0,0,1,0-2h8A1,1,0,0,1,27,7Zm0,3a1,1,0,0,1-1,1H18a1,1,0,0,1,0-2h8A1,1,0,0,1,27,10Zm0,3a1,1,0,0,1-1,1H18a1,1,0,0,1,0-2h8A1,1,0,0,1,27,13Zm0,3a1,1,0,0,1-1,1H18a1,1,0,0,1,0-2h8A1,1,0,0,1,27,16Z"/></g><text x="0" y="47" fill="#000000" font-size="5px" font-weight="bold" font-family="'Helvetica Neue', Helvetica, Arial-Unicode, Arial, Sans-serif">Created by Fiki Ahmadi</text><text x="0" y="52" fill="#000000" font-size="5px" font-weight="bold" font-family="'Helvetica Neue', Helvetica, Arial-Unicode, Arial, Sans-serif">from the Noun Project</text></svg>