<?xml version="1.0" encoding="utf-8"?>
<!-- Generator: Adobe Illustrator 21.1.0, SVG Export Plug-In . SVG Version: 6.00 Build 0)  -->
<svg version="1.1" id="Layer_1" xmlns="http://www.w3.org/2000/svg" xmlns:xlink="http://www.w3.org/1999/xlink" x="0px" y="0px"
	 viewBox="0 0 91 89.1" style="enable-background:new 0 0 91 89.1;" xml:space="preserve">
<g>
	<g>
		<path d="M19.4,11.8c0,1,0.8,1.8,1.8,1.8s1.8-0.8,1.8-1.8S22.2,10,21.2,10C20.3,9.9,19.4,10.7,19.4,11.8z"/>
		<path d="M28.4,11.8c0,1,0.8,1.8,1.9,1.8c1,0,1.8-0.8,1.8-1.8S31.3,10,30.3,10C29.3,9.9,28.4,10.7,28.4,11.8z"/>
		<path d="M10.4,11.8c0,1,0.8,1.8,1.8,1.8s1.8-0.8,1.8-1.8S13.2,10,12.2,10C11.3,9.9,10.4,10.7,10.4,11.8z"/>
		<path d="M2.4,14.8c1,0,1.8-0.8,1.8-1.8V5.7h77.1v13.9l0,0v28.6c0,1,0.8,1.8,1.8,1.8s1.8-0.8,1.8-1.8V19.6l0,0V3.9
			c0-1-0.8-1.8-1.8-1.8H2.4c-1,0-1.8,0.8-1.8,1.8V13C0.5,14,1.3,14.8,2.4,14.8z"/>
		<path d="M46.9,26.2H36.5c-1.9,0-3.3,0.9-4.3,2.1c-1-1.2-2.3-2.1-4.3-2.1H17.1c-1,0-1.8,0.8-1.8,1.8v1.8h-3.6c-1,0-1.8,0.8-1.8,1.8
			v22.6c0,1,0.8,1.8,1.8,1.8h14.1l1.5,1.5c0.3,0.3,0.8,0.5,1.3,0.5h7.1c0.5,0,1-0.2,1.3-0.5l1.5-1.5h14.1c1,0,1.8-0.8,1.8-1.8V31.7
			c0-1-0.8-1.8-1.8-1.8h-3.9v-1.8C48.8,27,48,26.2,46.9,26.2z M36.5,29.9h8.6v16.6h-8c-1.1,0-2.1,0.3-3,0.8V32.8
			C34.1,32.4,34.7,29.9,36.5,29.9z M19,29.9h9c1.8,0,2.3,2.4,2.4,2.9v14.5c-0.9-0.5-2-0.7-3.1-0.8H19V29.9z M50.9,33.5v18.9H37.8
			c-0.5,0-1,0.2-1.3,0.5L35,54.4h-5.6L27.9,53c-0.3-0.3-0.8-0.5-1.3-0.5H13.5v-19h1.8v14.8c0,1,0.8,1.8,1.8,1.8h10.1
			c0.7,0,1.5,0.3,1.6,0.5c0,1,0.8,1.8,1.8,1.8h1.5h1.5c1,0,1.8-0.8,1.8-1.8c0.1-0.2,0.9-0.5,1.6-0.5h9.8c1,0,1.8-0.8,1.8-1.8V33.5
			H50.9z"/>
		<path d="M88.7,70.6L69.6,57.5c-0.6-0.4-1.4-0.4-2,0s-0.9,1.2-0.8,1.9l4.4,22.7c0.1,0.7,0.7,1.3,1.4,1.4c0.1,0,0.3,0,0.4,0
			c0.6,0,1.1-0.3,1.5-0.8l4-5.4l7,10.3c0.4,0.5,0.9,0.8,1.5,0.8c0.4,0,0.7-0.1,1-0.3c0.8-0.6,1.1-1.7,0.5-2.6l-7-10.2l6.5-1.5
			c0.7-0.2,1.3-0.7,1.4-1.4C89.6,71.8,89.3,71,88.7,70.6z M78.2,72.4c-0.4,0.1-0.8,0.3-1.1,0.7l-3,4.2l-2.8-14.2l11.9,8.2L78.2,72.4
			z"/>
		<path d="M68.4,46.6c-1,0.1-1.7,1.1-1.6,2.1l0.5,3.6c0.1,0.9,0.9,1.6,1.8,1.6c0.1,0,0.2,0,0.2,0c1-0.1,1.7-1.1,1.6-2.1l-0.5-3.6
			C70.3,47.2,69.4,46.5,68.4,46.6z"/>
		<path d="M80.4,57.6c-1,0.1-1.7,1.1-1.6,2.1c0.1,0.9,0.9,1.6,1.8,1.6c0.1,0,0.2,0,0.2,0l3.9-0.5c1-0.1,1.7-1.1,1.6-2.1
			s-1.1-1.7-2.1-1.6L80.4,57.6z"/>
		<path d="M57.7,60.5c-1,0.1-1.7,1.1-1.6,2.1c0.1,0.9,0.9,1.6,1.8,1.6c0.1,0,0.2,0,0.2,0l2.9-0.4c1-0.1,1.7-1.1,1.6-2.1
			c-0.1-1-1-1.7-2.1-1.6L57.7,60.5z"/>
		<path d="M64.4,56.3c0.6-0.8,0.5-2-0.3-2.6l-2.8-2.2c-0.8-0.6-2-0.5-2.6,0.3s-0.5,2,0.3,2.6l2.8,2.2c0.3,0.3,0.7,0.4,1.1,0.4
			C63.5,57,64.1,56.8,64.4,56.3z"/>
		<path d="M78.8,49.6c-0.8-0.6-2-0.5-2.6,0.3L74,52.7c-0.6,0.8-0.5,2,0.3,2.6c0.3,0.3,0.7,0.4,1.1,0.4c0.5,0,1.1-0.2,1.5-0.7
			l2.2-2.8C79.8,51.4,79.6,50.2,78.8,49.6z"/>
		<path d="M62.3,67.9l-3,3.7H4.2V21.5H77c1,0,1.8-0.8,1.8-1.8S78,17.9,77,17.9H2.4c-1,0-1.8,0.8-1.8,1.8v53.8c0,1,0.8,1.8,1.8,1.8
			h57.9c0.6,0,1-0.3,1.4-0.6c0,0,0,0,0.1,0l3.5-4.4c0.6-0.8,0.5-1.9-0.3-2.6C64.1,67,63,67.1,62.3,67.9z"/>
	</g>
</g>
</svg>
